<svg width="20" height="20" viewBox="0 0 20 20" fill="none" xmlns="http://www.w3.org/2000/svg">
<path d="M2.10828 12.308C1.93107 13.4697 2.72334 14.276 3.69339 14.6779C7.41235 16.2185 12.5877 16.2185 16.3066 14.6779C17.2767 14.276 18.0689 13.4697 17.8918 12.308C17.7828 11.5941 17.2443 10.9996 16.8453 10.4191C16.3228 9.64944 16.2708 8.80985 16.2708 7.91669C16.2708 4.4649 13.4633 1.66669 10 1.66669C6.53679 1.66669 3.72929 4.4649 3.72929 7.91669C3.7292 8.80985 3.67728 9.64944 3.15469 10.4191C2.75571 10.9996 2.21719 11.5941 2.10828 12.308Z" stroke="black" stroke-width="1.5" stroke-linecap="round" stroke-linejoin="round"/>
<path d="M6.66666 15.8333C7.04873 17.271 8.39624 18.3333 9.99999 18.3333C11.6037 18.3333 12.9512 17.271 13.3333 15.8333" stroke="black" stroke-width="1.5" stroke-linecap="round" stroke-linejoin="round"/>
</svg>
