<?xml version="1.0" encoding="UTF-8"?>
<svg id="Layer_1" xmlns="http://www.w3.org/2000/svg" version="1.1" viewBox="0 0 299.45 289.09">
  <!-- Generator: Adobe Illustrator 30.2.1, SVG Export Plug-In . SVG Version: 2.1.1 Build 1)  -->
  <defs>
    <style>
      .st0 {
        fill: #fff;
      }
    </style>
  </defs>
  <path d="M160.58,208.53c0-10.22-1.54-22.18,7.48-22.17,3.53,0,7.84-.68,11.03-1.6.76-4.7,1.74-7.98,3.34-12.09-11.12,2.75-3.19,11.82-14.52,12.46l-12.25.69.76,19.71c.33,8.5-10.77,8.14-17.62,8.64-13.66.99-26.78,1.19-40.49.41-6.82-.39-19.97,2.12-25.09.44-8.37-2.74-15.81-4.39-24.74-4.38l-29.13.04c-2.26-.47-1.92-4.69-1.47-6.52,2-8.18,4.44-23.03,13.89-24.02l10.45-1.09c-7.81-6.97-12.83-20.09-9.44-28.44-2.69-.61-4.9-1.61-5.74-3.03-1.38-2.34-.55-4.73.09-7.1,7.01-25.58,24.52-24.02,19.35-39-1.7-4.94-4.06-8.44-8.62-9.94-10.92-3.59-12.06,5.86-18.16,3.21-1.07-.46-2.75-2.63-2.39-4.03,2.59-10.07,7.72-20.27,16.34-26.36,3.42-2.41,6.1-4.14,9.2-7.06,6.59-6.22,16.25-10.48,25.41-10.16,9.16.32,16.75-1.05,24.5-5.53l8.37-4.83c3.86-2.23,9.8-2,11.74,2.67,3.77,9.08-3.16,20.65-6.99,29.06,3.9,3.59,7.81,7.15,10.79,11.27s.17,8.01-3.32,10.73c-.06,1.64,1.71,3.6,3.1,4,1.78.52,3.98.15,5.5-.88,3.16-2.14,6.21-3.9,9.14-6.13,4.68-3.57,9.41-6.97,13.83-10.79l15.16-13.08c4.14-3.57,7.83-7.25,12.21-10.68,9.45-7.39,19.08-13.23,30.27-17.88,22.39-9.29,48.77-17.4,72.53-23.4,1.72-.43,4.92.26,6.07,1.27,1.29,1.12,1.82,3.72,1.92,5.7.8,15.02-4.65,21.05-14.73,30.59-1.55,14.91,1.26,18.93-10.19,30l-1.55,6.71c-1.55,6.68-1.57,13.83-4.27,20.31-4.3,10.35-11.12,19.74-19.6,26.99-3.88,3.32-8.64,5.4-12.49,8.16,23.78,8.44,25.61,18.01,38.98,33.08l8.43,9.51c6.58,7.42,7.85,20.42,4.24,29.68-4.4,11.26-21.12,22.57-32.96,26.35-6.53,2.08-12.76,5.28-19.59,6.16l-27.29,3.53c-6.36.82-18.55,5.59-22.85,11.18l-10.72,13.93c-6,7.8-25.65,10.62-35.06,2.65-.9-.76-1.63-3.18-1.33-4.16,1.08-3.47,6.55-1.97,8.3-4.77-14.19-.11-17.9-9.5-27.74-6.4-10.71,3.37-6.52,11.02-11.68,11.93-7.18,1.26-5.1-15.97-2.52-21.39,2.81-5.92,12.5-15.03,17.5-17.23,6.62-2.91,14.03-5.93,21.35-6.09l29.14-.62,20.62-.78,9.29-.45c11.24-.55,45.91-5.11,56.38-11.36-2.95-1.57-5.3-1.63-8.27-1.57-11.77.27-23.19.52-34.8,1.24l-31.76,1.96c-1.97.12-5.19-1.39-6.16-2.68-1.2-1.59-1.19-4.31-1.18-6.59v.02ZM239.99,51.41c12.83-5.81,31.71-8.02,34-21.6l1.13-6.67c.17-1.03-.32-3.21-1.11-3.82-4.12-3.17-33.14,8.18-39.62,10.67-4.07,1.56-8.62,2.3-12.93,3.61,4.25,8.02,5.45,15.28,3.67,24.54l14.86-6.74h0ZM243.33,82.2c5.94-3.42,12.01-6.47,16.85-10.87,1.26-1.15,2.25-4.99,2.55-6.67l1.54-8.71c.3-1.67-.59-5.45-2.77-4.64l-18.45,6.8c-12.72,4.69-23.74,12.35-35.69,19.54,3.01,8.41,3.27,15.65,1.81,24.73l13.95-8.55,20.21-11.63h0ZM160.82,139.42c-.69-3.8.86-5.88,3.54-7.27l7.14-3.69,5.77-3.24c2.61-1.47,5.19-3.68,5.92-6.87-4.48-4.59-14.64-3.72-15.16-8.36-.16-1.48,1.21-2.84,2.3-4.12,4.81-5.66,9.3-11.73,12.4-18.53,3.38-7.42-.05-22.62-7.42-27.98-4.44,3.01-7.82,6.38-11.6,10.2-10.18,10.28-22.79,20.68-35.21,28.59-.35,1.51.43,3.94,1.11,5.6l3.53,8.64c2.47,6.03,2.69,11.02,1.18,17.29-1.19,4.93,3.72,9.52,7.87,11.41,10.03,4.56,5.95,5.45,18.64-1.66h0ZM75.09,97.96l9.71-15.78c-1.66-2.61-3.46-5.1-5.39-6.96l-19.34.34c-4.71.08-9.47,1.62-13.49,4.18,3.16,5.72,5.56,10.21,7.82,15.78,2.56,6.32,9.24-.84,20.7,2.44h0ZM216.98,134.91c6.79-2.71,14.09-10.55,18.84-15.39,6.18-6.3,20.02-21.45,13.92-31.13-20.77,11.17-42.19,22.99-59.63,38.05.4,5.01,0,8.9-1.1,13.47,20.46,2.88,15.52-.03,27.97-5h0ZM77.67,195.44l10.09-9.72c4.6-4.43,9.7-7.45,14.78-11.42,3.53-2.76,5.45-10.25,4.48-14.69-1.81-8.24-4.56-15.67-3.36-24.34-4.47,3.51-20.56,11.63-22.72,5.19-.48-1.43-.07-3.63.65-5.11,3.71-8.85,7.53-17.01,12.59-25.83l-29.29-5.23-17.96,18.53-6.92,11.19c-2.14,3.46-.3,9.48,4.18,10.04,1.98.25,4.62-1.64,7.11-2.84-2.9,19.58-2.55,16.07,1.61,33.71.82,3.48,3.44,5,6.85,4.67,3.01,3.65,12.12,21.45,17.92,15.86h0ZM105.76,209.27l17.1-1.06c10.14-.63,20.59-.66,22.53-10.34,4.2-20.94.2-21.88-9.65-33.68l-12.29-14.73c-10.28,14.16-8.98,18.53-8.08,36.52-7.91,1.11-22.67-.17-26.09,9.42-1.45,4.06-1.02,8.4,1.29,11.73,1.83.82,5.31,1.29,7.38,1.35,1.93-6.35,5.13-11.79,11.09-14.92-2.14,5.79-5.28,9.6-3.28,15.7h0ZM34.73,202.9c-.3,2.23,2.25,3.54,3.84,3.36,5.91-.68,10.98-.64,16.93-.29,11.46.68-1.97-17.03-7.91-21.08-2.84-1.94-15.28-2.43-16.68.36-2.74,5.49-9.11,16.47-5.63,20.18,1.08,1.15,3.89,1.78,5.3,1.44.66-4.94,1.96-9.47,5.34-12.87l-1.19,8.9ZM140.81,273.85c6.49-.27,10.03-3.57,13.6-6.93,3.11-4.23,6.09-8.61,10.06-12.15,11.51-10.3,15.11-9.91,29.7-14.05.93-.26,1.98-1.28,2.83-2.39-5.51-.5-9.98-.46-15.35-.92l-12.12-1.04c-2.81-.24-5.59.17-8.44-.03-18.22-1.26-47.12,1.71-59.66,16.2,12.73.22,28.78,11.36,38.97,4.33,2.05-1.41,3.58-2.28,5.99-2.64l-2.43,10.81c-.63,2.82-2.19,5.92-3.14,8.8h-.01Z"/>
  <path class="st0" d="M77.67,195.44c-5.8,5.59-14.92-12.21-17.92-15.86-3.42.33-6.03-1.19-6.85-4.67-4.16-17.64-4.51-14.13-1.61-33.71-2.49,1.2-5.13,3.09-7.11,2.84-4.48-.56-6.32-6.58-4.18-10.04l6.92-11.19,17.96-18.53,29.29,5.23c-5.06,8.82-8.87,16.98-12.59,25.83-.72,1.49-1.13,3.69-.65,5.11,2.16,6.44,18.26-1.68,22.72-5.19-1.2,8.68,1.54,16.1,3.36,24.34.98,4.44-.95,11.93-4.48,14.69-5.08,3.97-10.17,6.99-14.78,11.42l-10.09,9.72h0Z"/>
  <path class="st0" d="M160.82,139.42c-12.7,7.12-8.62,6.22-18.64,1.66-4.15-1.89-9.05-6.48-7.87-11.41,1.51-6.28,1.29-11.26-1.18-17.29l-3.53-8.64c-.68-1.66-1.46-4.09-1.11-5.6,12.41-7.91,25.03-18.31,35.21-28.59,3.79-3.82,7.16-7.2,11.6-10.2,7.37,5.36,10.8,20.56,7.42,27.98-3.1,6.8-7.59,12.88-12.4,18.53-1.09,1.28-2.46,2.64-2.3,4.12.52,4.64,10.68,3.78,15.16,8.36-.73,3.19-3.31,5.41-5.92,6.87l-5.77,3.24-7.14,3.69c-2.68,1.38-4.22,3.47-3.54,7.27h0Z"/>
  <path class="st0" d="M105.76,209.27c-2-6.1,1.13-9.91,3.28-15.7-5.96,3.13-9.16,8.57-11.09,14.92-2.07-.06-5.55-.54-7.38-1.35-2.3-3.33-2.73-7.67-1.29-11.73,3.42-9.59,18.18-8.31,26.09-9.42-.9-17.99-2.19-22.36,8.08-36.52l12.29,14.73c9.85,11.8,13.84,12.74,9.65,33.68-1.94,9.68-12.39,9.71-22.53,10.34l-17.1,1.06h0Z"/>
  <path class="st0" d="M140.81,273.85c.95-2.89,2.51-5.98,3.14-8.8l2.43-10.81c-2.41.36-3.94,1.22-5.99,2.64-10.18,7.03-26.24-4.11-38.97-4.33,12.54-14.5,41.44-17.47,59.66-16.2,2.85.2,5.63-.21,8.44.03l12.12,1.04c5.38.46,9.84.42,15.35.92-.85,1.11-1.9,2.13-2.83,2.39-14.58,4.14-18.19,3.75-29.7,14.05-3.97,3.55-6.95,7.92-10.06,12.15-3.57,3.36-7.11,6.66-13.6,6.93h.01Z"/>
  <path class="st0" d="M216.98,134.91c-12.45,4.97-7.5,7.88-27.97,5,1.1-4.57,1.5-8.46,1.1-13.47,17.44-15.06,38.86-26.88,59.63-38.05,6.1,9.68-7.74,24.83-13.92,31.13-4.75,4.84-12.05,12.68-18.84,15.39h0Z"/>
  <path class="st0" d="M243.33,82.2l-20.21,11.63-13.95,8.55c1.46-9.08,1.19-16.32-1.81-24.73,11.95-7.19,22.97-14.85,35.69-19.54l18.45-6.8c2.18-.8,3.06,2.97,2.77,4.64l-1.54,8.71c-.3,1.68-1.29,5.52-2.55,6.67-4.84,4.4-10.91,7.45-16.85,10.87h0Z"/>
  <path class="st0" d="M239.99,51.41l-14.86,6.74c1.78-9.26.58-16.53-3.67-24.54,4.31-1.32,8.86-2.05,12.93-3.61,6.48-2.49,35.5-13.84,39.62-10.67.79.61,1.29,2.79,1.11,3.82l-1.13,6.67c-2.29,13.58-21.17,15.78-34,21.6h0Z"/>
  <path class="st0" d="M75.09,97.96c-11.46-3.27-18.14,3.89-20.7-2.44-2.26-5.58-4.65-10.06-7.82-15.78,4.02-2.56,8.78-4.09,13.49-4.18l19.34-.34c1.93,1.87,3.73,4.35,5.39,6.96l-9.71,15.78h.01Z"/>
  <path class="st0" d="M34.73,202.9l1.19-8.9c-3.38,3.4-4.68,7.93-5.34,12.87-1.41.34-4.22-.29-5.3-1.44-3.48-3.71,2.89-14.7,5.63-20.18,1.4-2.79,13.84-2.3,16.68-.36,5.94,4.05,19.37,21.77,7.91,21.08-5.95-.35-11.02-.39-16.93.29-1.59.18-4.14-1.12-3.84-3.36Z"/>
</svg>