<svg width="19" height="18" viewBox="0 0 19 18" fill="none" xmlns="http://www.w3.org/2000/svg">
<path d="M7.02671 15.9757H11.7112C15.6149 15.9757 17.1763 14.5234 17.1763 10.8926V6.53556C17.1763 2.90473 15.6149 1.45239 11.7112 1.45239H7.02671C3.123 1.45239 1.56152 2.90473 1.56152 6.53556V10.8926C1.56152 14.5234 3.123 15.9757 7.02671 15.9757Z" stroke="#171717" stroke-width="1.5" stroke-linecap="round" stroke-linejoin="round"/>
<path d="M14.3501 11.0886V5.50442C14.3501 4.94527 13.866 4.53862 13.2726 4.58219H13.2414C12.1952 4.66207 10.6103 5.16313 9.72029 5.67871L9.63442 5.72955C9.49389 5.80943 9.25181 5.80943 9.10347 5.72955L8.97858 5.65693C8.09634 5.14135 6.51144 4.6548 5.46524 4.57492C4.87188 4.53135 4.38782 4.94528 4.38782 5.49717V11.0886C4.38782 11.5316 4.77818 11.9528 5.25443 12.0036L5.39496 12.0254C6.47238 12.1561 8.1432 12.6717 9.09571 13.1582L9.1191 13.1655C9.25183 13.2381 9.47043 13.2381 9.59534 13.1655C10.5478 12.6717 12.2264 12.1634 13.3117 12.0254L13.4756 12.0036C13.9597 11.9528 14.3501 11.5389 14.3501 11.0886Z" stroke="#171717" stroke-width="1.5" stroke-linecap="round" stroke-linejoin="round"/>
<path d="M9.3689 5.88208V12.8242" stroke="#171717" stroke-width="1.5" stroke-linecap="round" stroke-linejoin="round"/>
</svg>
