<svg width="23" height="23" viewBox="0 0 23 23" fill="none" xmlns="http://www.w3.org/2000/svg">
<path d="M11.5 14.375C13.0878 14.375 14.375 13.0878 14.375 11.5C14.375 9.91218 13.0878 8.625 11.5 8.625C9.91218 8.625 8.625 9.91218 8.625 11.5C8.625 13.0878 9.91218 14.375 11.5 14.375Z" stroke="#171717" stroke-width="1.5" stroke-miterlimit="10" stroke-linecap="round" stroke-linejoin="round"/>
<path d="M1.91663 12.3435V10.6569C1.91663 9.6602 2.73121 8.83604 3.73746 8.83604C5.47204 8.83604 6.18121 7.60937 5.30913 6.10479C4.81079 5.24229 5.10788 4.12104 5.97996 3.6227L7.63788 2.67395C8.39496 2.22354 9.37246 2.49187 9.82288 3.24895L9.92829 3.43104C10.7908 4.93562 12.2091 4.93562 13.0812 3.43104L13.1866 3.24895C13.637 2.49187 14.6145 2.22354 15.3716 2.67395L17.0295 3.6227C17.9016 4.12104 18.1987 5.24229 17.7004 6.10479C16.8283 7.60937 17.5375 8.83604 19.272 8.83604C20.2687 8.83604 21.0929 9.65062 21.0929 10.6569V12.3435C21.0929 13.3402 20.2783 14.1644 19.272 14.1644C17.5375 14.1644 16.8283 15.391 17.7004 16.8956C18.1987 17.7677 17.9016 18.8794 17.0295 19.3777L15.3716 20.3265C14.6145 20.7769 13.637 20.5085 13.1866 19.7515L13.0812 19.5694C12.2187 18.0648 10.8004 18.0648 9.92829 19.5694L9.82288 19.7515C9.37246 20.5085 8.39496 20.7769 7.63788 20.3265L5.97996 19.3777C5.10788 18.8794 4.81079 17.7581 5.30913 16.8956C6.18121 15.391 5.47204 14.1644 3.73746 14.1644C2.73121 14.1644 1.91663 13.3402 1.91663 12.3435Z" stroke="#171717" stroke-width="1.5" stroke-miterlimit="10" stroke-linecap="round" stroke-linejoin="round"/>
</svg>
